<svg id="visual" viewBox="0 0 900 450" width="900" height="450" xmlns="http://www.w3.org/2000/svg" xmlns:xlink="http://www.w3.org/1999/xlink" version="1.1"><g stroke-width="1" stroke-linejoin="bevel"><path d="M484.6 192.9L415.4 192.9L484.6 257.1Z" fill="#00abb5" stroke="#00abb5"></path><path d="M415.4 192.9L415.4 257.1L484.6 257.1Z" fill="#00abb5" stroke="#00abb5"></path><path d="M415.4 257.1L484.6 321.4L484.6 257.1Z" fill="#000000" stroke="#000000"></path><path d="M415.4 257.1L415.4 321.4L484.6 321.4Z" fill="#00646d" stroke="#00646d"></path><path d="M484.6 192.9L484.6 128.6L415.4 192.9Z" fill="#00232c" stroke="#00232c"></path><path d="M484.6 128.6L415.4 128.6L415.4 192.9Z" fill="#00c4cd" stroke="#00c4cd"></path><path d="M484.6 321.4L553.8 257.1L484.6 257.1Z" fill="#00232c" stroke="#00232c"></path><path d="M484.6 257.1L553.8 257.1L484.6 192.9Z" fill="#00646d" stroke="#00646d"></path><path d="M484.6 192.9L553.8 192.9L484.6 128.6Z" fill="#00dde6" stroke="#00dde6"></path><path d="M553.8 257.1L553.8 192.9L484.6 192.9Z" fill="#00c4cd" stroke="#00c4cd"></path><path d="M415.4 128.6L346.2 192.9L415.4 192.9Z" fill="#003740" stroke="#003740"></path><path d="M415.4 192.9L346.2 192.9L415.4 257.1Z" fill="#004d56" stroke="#004d56"></path><path d="M415.4 257.1L346.2 257.1L415.4 321.4Z" fill="#00abb5" stroke="#00abb5"></path><path d="M346.2 192.9L346.2 257.1L415.4 257.1Z" fill="#00646d" stroke="#00646d"></path><path d="M484.6 321.4L553.8 321.4L553.8 257.1Z" fill="#00dde6" stroke="#00dde6"></path><path d="M553.8 192.9L553.8 128.6L484.6 128.6Z" fill="#00c4cd" stroke="#00c4cd"></path><path d="M346.2 257.1L346.2 321.4L415.4 321.4Z" fill="#00abb5" stroke="#00abb5"></path><path d="M415.4 128.6L346.2 128.6L346.2 192.9Z" fill="#00abb5" stroke="#00abb5"></path><path d="M553.8 128.6L484.6 64.3L484.6 128.6Z" fill="#00abb5" stroke="#00abb5"></path><path d="M484.6 128.6L484.6 64.3L415.4 128.6Z" fill="#003740" stroke="#003740"></path><path d="M415.4 128.6L415.4 64.3L346.2 128.6Z" fill="#007c85" stroke="#007c85"></path><path d="M484.6 64.3L415.4 64.3L415.4 128.6Z" fill="#00dde6" stroke="#00dde6"></path><path d="M415.4 321.4L484.6 385.7L484.6 321.4Z" fill="#00dde6" stroke="#00dde6"></path><path d="M484.6 321.4L484.6 385.7L553.8 321.4Z" fill="#007c85" stroke="#007c85"></path><path d="M415.4 385.7L484.6 385.7L415.4 321.4Z" fill="#00646d" stroke="#00646d"></path><path d="M346.2 321.4L415.4 385.7L415.4 321.4Z" fill="#004d56" stroke="#004d56"></path><path d="M346.2 128.6L276.9 192.9L346.2 192.9Z" fill="#00abb5" stroke="#00abb5"></path><path d="M346.2 192.9L276.9 192.9L346.2 257.1Z" fill="#007c85" stroke="#007c85"></path><path d="M346.2 257.1L276.9 257.1L346.2 321.4Z" fill="#00939d" stroke="#00939d"></path><path d="M623.1 257.1L623.1 192.9L553.8 257.1Z" fill="#003740" stroke="#003740"></path><path d="M553.8 257.1L623.1 192.9L553.8 192.9Z" fill="#000000" stroke="#000000"></path><path d="M553.8 192.9L623.1 128.6L553.8 128.6Z" fill="#003740" stroke="#003740"></path><path d="M553.8 321.4L623.1 257.1L553.8 257.1Z" fill="#004d56" stroke="#004d56"></path><path d="M623.1 321.4L623.1 257.1L553.8 321.4Z" fill="#00939d" stroke="#00939d"></path><path d="M276.9 192.9L276.9 257.1L346.2 257.1Z" fill="#007c85" stroke="#007c85"></path><path d="M346.2 321.4L346.2 385.7L415.4 385.7Z" fill="#00232c" stroke="#00232c"></path><path d="M553.8 128.6L553.8 64.3L484.6 64.3Z" fill="#004d56" stroke="#004d56"></path><path d="M623.1 128.6L553.8 64.3L553.8 128.6Z" fill="#00c4cd" stroke="#00c4cd"></path><path d="M484.6 385.7L553.8 385.7L553.8 321.4Z" fill="#00f7ff" stroke="#00f7ff"></path><path d="M415.4 64.3L346.2 64.3L346.2 128.6Z" fill="#00c4cd" stroke="#00c4cd"></path><path d="M346.2 128.6L276.9 128.6L276.9 192.9Z" fill="#004d56" stroke="#004d56"></path><path d="M276.9 321.4L346.2 385.7L346.2 321.4Z" fill="#00f7ff" stroke="#00f7ff"></path><path d="M276.9 257.1L276.9 321.4L346.2 321.4Z" fill="#004d56" stroke="#004d56"></path><path d="M623.1 385.7L623.1 321.4L553.8 321.4Z" fill="#003740" stroke="#003740"></path><path d="M346.2 64.3L276.9 128.6L346.2 128.6Z" fill="#00232c" stroke="#00232c"></path><path d="M623.1 192.9L623.1 128.6L553.8 192.9Z" fill="#00abb5" stroke="#00abb5"></path><path d="M484.6 385.7L484.6 450L553.8 385.7Z" fill="#00abb5" stroke="#00abb5"></path><path d="M415.4 385.7L484.6 450L484.6 385.7Z" fill="#00dde6" stroke="#00dde6"></path><path d="M415.4 450L484.6 450L415.4 385.7Z" fill="#00f7ff" stroke="#00f7ff"></path><path d="M484.6 64.3L415.4 0L415.4 64.3Z" fill="#00939d" stroke="#00939d"></path><path d="M415.4 64.3L415.4 0L346.2 64.3Z" fill="#000000" stroke="#000000"></path><path d="M484.6 0L415.4 0L484.6 64.3Z" fill="#00f7ff" stroke="#00f7ff"></path><path d="M553.8 0L484.6 0L553.8 64.3Z" fill="#00232c" stroke="#00232c"></path><path d="M553.8 64.3L484.6 0L484.6 64.3Z" fill="#00939d" stroke="#00939d"></path><path d="M346.2 385.7L415.4 450L415.4 385.7Z" fill="#00dde6" stroke="#00dde6"></path><path d="M623.1 128.6L623.1 64.3L553.8 64.3Z" fill="#003740" stroke="#003740"></path><path d="M346.2 0L276.9 64.3L346.2 64.3Z" fill="#000000" stroke="#000000"></path><path d="M346.2 64.3L276.9 64.3L276.9 128.6Z" fill="#007c85" stroke="#007c85"></path><path d="M276.9 321.4L276.9 385.7L346.2 385.7Z" fill="#00c4cd" stroke="#00c4cd"></path><path d="M346.2 385.7L346.2 450L415.4 450Z" fill="#00c4cd" stroke="#00c4cd"></path><path d="M553.8 385.7L623.1 385.7L553.8 321.4Z" fill="#00232c" stroke="#00232c"></path><path d="M553.8 450L623.1 385.7L553.8 385.7Z" fill="#00646d" stroke="#00646d"></path><path d="M623.1 257.1L692.3 257.1L623.1 192.9Z" fill="#00c4cd" stroke="#00c4cd"></path><path d="M623.1 192.9L692.3 192.9L623.1 128.6Z" fill="#007c85" stroke="#007c85"></path><path d="M623.1 128.6L692.3 128.6L623.1 64.3Z" fill="#004d56" stroke="#004d56"></path><path d="M623.1 321.4L692.3 257.1L623.1 257.1Z" fill="#00dde6" stroke="#00dde6"></path><path d="M692.3 321.4L692.3 257.1L623.1 321.4Z" fill="#00232c" stroke="#00232c"></path><path d="M692.3 257.1L692.3 192.9L623.1 192.9Z" fill="#00232c" stroke="#00232c"></path><path d="M207.7 128.6L207.7 192.9L276.9 128.6Z" fill="#00c4cd" stroke="#00c4cd"></path><path d="M276.9 128.6L207.7 192.9L276.9 192.9Z" fill="#00646d" stroke="#00646d"></path><path d="M276.9 192.9L207.7 192.9L276.9 257.1Z" fill="#007c85" stroke="#007c85"></path><path d="M276.9 257.1L207.7 257.1L276.9 321.4Z" fill="#00f7ff" stroke="#00f7ff"></path><path d="M276.9 321.4L207.7 321.4L276.9 385.7Z" fill="#00939d" stroke="#00939d"></path><path d="M207.7 192.9L207.7 257.1L276.9 257.1Z" fill="#00dde6" stroke="#00dde6"></path><path d="M623.1 64.3L553.8 0L553.8 64.3Z" fill="#00f7ff" stroke="#00f7ff"></path><path d="M484.6 450L553.8 450L553.8 385.7Z" fill="#007c85" stroke="#007c85"></path><path d="M415.4 0L346.2 0L346.2 64.3Z" fill="#00232c" stroke="#00232c"></path><path d="M276.9 385.7L346.2 450L346.2 385.7Z" fill="#00dde6" stroke="#00dde6"></path><path d="M692.3 385.7L692.3 321.4L623.1 321.4Z" fill="#007c85" stroke="#007c85"></path><path d="M692.3 192.9L692.3 128.6L623.1 128.6Z" fill="#00f7ff" stroke="#00f7ff"></path><path d="M207.7 257.1L207.7 321.4L276.9 321.4Z" fill="#00c4cd" stroke="#00c4cd"></path><path d="M276.9 64.3L207.7 128.6L276.9 128.6Z" fill="#00abb5" stroke="#00abb5"></path><path d="M623.1 64.3L623.1 0L553.8 0Z" fill="#00f7ff" stroke="#00f7ff"></path><path d="M692.3 64.3L623.1 0L623.1 64.3Z" fill="#000000" stroke="#000000"></path><path d="M207.7 385.7L276.9 450L276.9 385.7Z" fill="#00939d" stroke="#00939d"></path><path d="M276.9 385.7L276.9 450L346.2 450Z" fill="#003740" stroke="#003740"></path><path d="M346.2 0L276.9 0L276.9 64.3Z" fill="#00232c" stroke="#00232c"></path><path d="M276.9 64.3L207.7 64.3L207.7 128.6Z" fill="#00232c" stroke="#00232c"></path><path d="M553.8 450L623.1 450L623.1 385.7Z" fill="#00f7ff" stroke="#00f7ff"></path><path d="M623.1 385.7L692.3 385.7L623.1 321.4Z" fill="#003740" stroke="#003740"></path><path d="M623.1 450L692.3 385.7L623.1 385.7Z" fill="#004d56" stroke="#004d56"></path><path d="M692.3 128.6L692.3 64.3L623.1 64.3Z" fill="#004d56" stroke="#004d56"></path><path d="M276.9 0L207.7 64.3L276.9 64.3Z" fill="#000000" stroke="#000000"></path><path d="M207.7 321.4L207.7 385.7L276.9 385.7Z" fill="#00232c" stroke="#00232c"></path><path d="M692.3 257.1L761.5 257.1L692.3 192.9Z" fill="#00c4cd" stroke="#00c4cd"></path><path d="M692.3 192.9L761.5 192.9L692.3 128.6Z" fill="#00c4cd" stroke="#00c4cd"></path><path d="M692.3 128.6L761.5 128.6L692.3 64.3Z" fill="#00646d" stroke="#00646d"></path><path d="M692.3 321.4L761.5 257.1L692.3 257.1Z" fill="#00232c" stroke="#00232c"></path><path d="M761.5 321.4L761.5 257.1L692.3 321.4Z" fill="#00c4cd" stroke="#00c4cd"></path><path d="M761.5 257.1L761.5 192.9L692.3 192.9Z" fill="#00939d" stroke="#00939d"></path><path d="M207.7 257.1L138.5 257.1L207.7 321.4Z" fill="#00abb5" stroke="#00abb5"></path><path d="M207.7 321.4L138.5 321.4L207.7 385.7Z" fill="#00232c" stroke="#00232c"></path><path d="M207.7 192.9L138.5 257.1L207.7 257.1Z" fill="#003740" stroke="#003740"></path><path d="M138.5 192.9L138.5 257.1L207.7 192.9Z" fill="#00f7ff" stroke="#00f7ff"></path><path d="M138.5 192.9L207.7 192.9L207.7 128.6Z" fill="#00939d" stroke="#00939d"></path><path d="M138.5 128.6L138.5 192.9L207.7 128.6Z" fill="#00f7ff" stroke="#00f7ff"></path><path d="M761.5 385.7L761.5 321.4L692.3 321.4Z" fill="#004d56" stroke="#004d56"></path><path d="M761.5 192.9L761.5 128.6L692.3 128.6Z" fill="#00939d" stroke="#00939d"></path><path d="M207.7 64.3L138.5 128.6L207.7 128.6Z" fill="#00939d" stroke="#00939d"></path><path d="M138.5 257.1L138.5 321.4L207.7 321.4Z" fill="#007c85" stroke="#007c85"></path><path d="M761.5 64.3L692.3 0L692.3 64.3Z" fill="#00232c" stroke="#00232c"></path><path d="M692.3 64.3L692.3 0L623.1 0Z" fill="#003740" stroke="#003740"></path><path d="M623.1 450L692.3 450L692.3 385.7Z" fill="#000000" stroke="#000000"></path><path d="M692.3 385.7L761.5 385.7L692.3 321.4Z" fill="#00dde6" stroke="#00dde6"></path><path d="M276.9 0L207.7 0L207.7 64.3Z" fill="#00f7ff" stroke="#00f7ff"></path><path d="M207.7 64.3L138.5 64.3L138.5 128.6Z" fill="#000000" stroke="#000000"></path><path d="M138.5 385.7L207.7 450L207.7 385.7Z" fill="#00c4cd" stroke="#00c4cd"></path><path d="M207.7 385.7L207.7 450L276.9 450Z" fill="#00dde6" stroke="#00dde6"></path><path d="M761.5 128.6L761.5 64.3L692.3 64.3Z" fill="#00abb5" stroke="#00abb5"></path><path d="M692.3 450L761.5 385.7L692.3 385.7Z" fill="#00646d" stroke="#00646d"></path><path d="M207.7 0L138.5 64.3L207.7 64.3Z" fill="#00232c" stroke="#00232c"></path><path d="M138.5 321.4L138.5 385.7L207.7 385.7Z" fill="#00abb5" stroke="#00abb5"></path><path d="M761.5 257.1L830.8 192.9L761.5 192.9Z" fill="#00232c" stroke="#00232c"></path><path d="M761.5 192.9L830.8 128.6L761.5 128.6Z" fill="#000000" stroke="#000000"></path><path d="M761.5 128.6L830.8 128.6L761.5 64.3Z" fill="#00c4cd" stroke="#00c4cd"></path><path d="M830.8 257.1L830.8 192.9L761.5 257.1Z" fill="#00232c" stroke="#00232c"></path><path d="M830.8 257.1L761.5 257.1L761.5 321.4Z" fill="#00939d" stroke="#00939d"></path><path d="M830.8 321.4L830.8 257.1L761.5 321.4Z" fill="#00939d" stroke="#00939d"></path><path d="M69.2 128.6L69.2 192.9L138.5 128.6Z" fill="#00c4cd" stroke="#00c4cd"></path><path d="M138.5 128.6L69.2 192.9L138.5 192.9Z" fill="#007c85" stroke="#007c85"></path><path d="M138.5 192.9L69.2 192.9L138.5 257.1Z" fill="#00abb5" stroke="#00abb5"></path><path d="M138.5 257.1L69.2 257.1L138.5 321.4Z" fill="#00abb5" stroke="#00abb5"></path><path d="M138.5 321.4L69.2 321.4L138.5 385.7Z" fill="#007c85" stroke="#007c85"></path><path d="M69.2 192.9L69.2 257.1L138.5 257.1Z" fill="#00abb5" stroke="#00abb5"></path><path d="M830.8 64.3L761.5 0L761.5 64.3Z" fill="#00646d" stroke="#00646d"></path><path d="M761.5 64.3L761.5 0L692.3 0Z" fill="#004d56" stroke="#004d56"></path><path d="M692.3 450L761.5 450L761.5 385.7Z" fill="#003740" stroke="#003740"></path><path d="M830.8 385.7L830.8 321.4L761.5 321.4Z" fill="#00c4cd" stroke="#00c4cd"></path><path d="M207.7 0L138.5 0L138.5 64.3Z" fill="#00f7ff" stroke="#00f7ff"></path><path d="M138.5 64.3L69.2 128.6L138.5 128.6Z" fill="#004d56" stroke="#004d56"></path><path d="M138.5 385.7L138.5 450L207.7 450Z" fill="#00c4cd" stroke="#00c4cd"></path><path d="M69.2 385.7L138.5 450L138.5 385.7Z" fill="#00646d" stroke="#00646d"></path><path d="M830.8 385.7L761.5 321.4L761.5 385.7Z" fill="#004d56" stroke="#004d56"></path><path d="M830.8 192.9L830.8 128.6L761.5 192.9Z" fill="#00c4cd" stroke="#00c4cd"></path><path d="M69.2 257.1L69.2 321.4L138.5 321.4Z" fill="#00dde6" stroke="#00dde6"></path><path d="M69.2 64.3L69.2 128.6L138.5 64.3Z" fill="#007c85" stroke="#007c85"></path><path d="M761.5 450L830.8 385.7L761.5 385.7Z" fill="#00646d" stroke="#00646d"></path><path d="M830.8 128.6L830.8 64.3L761.5 64.3Z" fill="#00abb5" stroke="#00abb5"></path><path d="M138.5 0L69.2 64.3L138.5 64.3Z" fill="#00abb5" stroke="#00abb5"></path><path d="M69.2 321.4L69.2 385.7L138.5 385.7Z" fill="#007c85" stroke="#007c85"></path><path d="M830.8 64.3L830.8 0L761.5 0Z" fill="#00f7ff" stroke="#00f7ff"></path><path d="M761.5 450L830.8 450L830.8 385.7Z" fill="#00dde6" stroke="#00dde6"></path><path d="M138.5 0L69.2 0L69.2 64.3Z" fill="#000000" stroke="#000000"></path><path d="M69.2 385.7L69.2 450L138.5 450Z" fill="#00939d" stroke="#00939d"></path><path d="M830.8 257.1L900 192.9L830.8 192.9Z" fill="#00646d" stroke="#00646d"></path><path d="M830.8 192.9L900 128.6L830.8 128.6Z" fill="#00939d" stroke="#00939d"></path><path d="M830.8 128.6L900 128.6L830.8 64.3Z" fill="#000000" stroke="#000000"></path><path d="M830.8 64.3L900 64.3L830.8 0Z" fill="#00c4cd" stroke="#00c4cd"></path><path d="M900 257.1L900 192.9L830.8 257.1Z" fill="#00f7ff" stroke="#00f7ff"></path><path d="M900 257.1L830.8 257.1L830.8 321.4Z" fill="#003740" stroke="#003740"></path><path d="M900 257.1L830.8 321.4L900 321.4Z" fill="#00232c" stroke="#00232c"></path><path d="M0 128.6L69.2 128.6L69.2 64.3Z" fill="#00f7ff" stroke="#00f7ff"></path><path d="M0 128.6L0 192.9L69.2 128.6Z" fill="#00939d" stroke="#00939d"></path><path d="M69.2 128.6L0 192.9L69.2 192.9Z" fill="#00939d" stroke="#00939d"></path><path d="M69.2 192.9L0 192.9L69.2 257.1Z" fill="#00939d" stroke="#00939d"></path><path d="M69.2 257.1L0 257.1L69.2 321.4Z" fill="#00c4cd" stroke="#00c4cd"></path><path d="M69.2 321.4L0 321.4L69.2 385.7Z" fill="#00abb5" stroke="#00abb5"></path><path d="M69.2 385.7L0 385.7L69.2 450Z" fill="#00c4cd" stroke="#00c4cd"></path><path d="M900 321.4L830.8 321.4L900 385.7Z" fill="#00dde6" stroke="#00dde6"></path><path d="M0 192.9L0 257.1L69.2 257.1Z" fill="#007c85" stroke="#007c85"></path><path d="M900 385.7L830.8 321.4L830.8 385.7Z" fill="#00f7ff" stroke="#00f7ff"></path><path d="M0 257.1L0 321.4L69.2 321.4Z" fill="#00939d" stroke="#00939d"></path><path d="M0 64.3L0 128.6L69.2 64.3Z" fill="#00646d" stroke="#00646d"></path><path d="M900 192.9L900 128.6L830.8 192.9Z" fill="#00f7ff" stroke="#00f7ff"></path><path d="M830.8 450L900 385.7L830.8 385.7Z" fill="#00abb5" stroke="#00abb5"></path><path d="M69.2 0L0 64.3L69.2 64.3Z" fill="#00dde6" stroke="#00dde6"></path><path d="M900 128.6L900 64.3L830.8 64.3Z" fill="#00646d" stroke="#00646d"></path><path d="M0 321.4L0 385.7L69.2 385.7Z" fill="#00c4cd" stroke="#00c4cd"></path><path d="M69.2 0L0 0L0 64.3Z" fill="#00f7ff" stroke="#00f7ff"></path><path d="M0 385.7L0 450L69.2 450Z" fill="#00646d" stroke="#00646d"></path><path d="M900 64.3L900 0L830.8 0Z" fill="#000000" stroke="#000000"></path><path d="M830.8 450L900 450L900 385.7Z" fill="#000000" stroke="#000000"></path></g></svg>